<?xml version="1.0" encoding="utf-8" ?><svg xmlns="http://www.w3.org/2000/svg" xmlns:xlink="http://www.w3.org/1999/xlink" width="1024" height="1024" viewBox="0 0 1024 1024"><path fill="#F5F0E8" d="M0 0L1024 0L1024 1024L0 1024L0 0Z"/><path fill="#3D2E1F" d="M185.095 69.5647C186.623 69.5918 188.96 69.6615 190.146 70.7586C205.358 84.8306 221.268 98.1284 236.797 111.828C269.426 140.219 302.548 168.036 336.148 195.269C351.25 207.354 366.596 219.168 381.878 231.019C406.075 249.782 430.079 270.131 454.634 288.357L450.492 161.038C450.313 155.287 448.268 114.76 449.413 112.492C454.079 109.05 496.513 86.7413 500.358 85.8258C506.357 84.3974 515.223 84.6728 521.616 84.2653C534.252 83.4599 547.409 81.8438 560.045 82.055C562.153 82.0902 564.539 82.1155 566.39 83.2105C569.307 89.3714 568.603 113.772 568.717 121.698L569.582 178.315C570.064 206.127 570.242 233.944 570.114 261.761C570.117 274.036 570.413 286.156 570.017 298.435C580.445 289.3 595.309 278.372 606.411 269.724L659.004 228.104C697.257 197.314 735.093 166.007 772.499 134.193C780.768 127.214 792.668 117.079 800.52 110.371C807.989 103.99 841.264 72.6316 847.258 70.2827C852.606 70.5209 866.385 84.7739 871.162 89.1766L907.106 122.337C914.209 128.704 921.394 134.978 928.661 141.157C933.911 145.661 949.005 155.313 940.032 162.771C932.703 168.864 924.898 174.766 917.413 180.7L875.302 214.251L798.027 275.069C759.265 304.61 721.336 335.229 684.287 366.891C664.307 383.645 644.938 401.113 626.218 419.263C612.968 432.182 599.845 445.378 588.546 460.066C585.54 463.975 582.066 468.078 580.131 472.643C577.73 478.306 579.955 541.088 580.175 551.422L585.697 777.61L587.711 862.247L588.825 895.046C589.036 901.353 589.377 907.824 589.186 914.126C589.269 917.287 587.622 919.861 585.453 922.198C577.039 931.284 566.541 941.834 558.091 950.456C556.282 952.302 523.177 951.742 518.086 951.791L488.356 952.043C483.446 952.099 471.675 953.222 467.512 950.673C465.91 949.691 465.418 946.488 465.365 944.611C464.857 926.801 464.348 908.982 463.846 891.168L460.884 763.88L457.704 625.044C456.381 577.724 454.578 529.103 453.933 481.832C447.703 476.386 440.601 467.938 434.343 461.827C418.152 446.096 401.562 430.781 384.59 415.896C375.513 408.01 365.924 400.783 356.595 393.209L299.657 346.787C253.783 308.414 207.593 270.418 161.094 232.803L109.107 191.235C101.88 185.486 94.4839 179.948 87.2817 174.049C77.8368 166.313 82.1408 161.181 89.6866 153.977C94.1757 149.691 99.2306 145.651 103.907 141.484L141.104 108.272C154.35 96.3394 167.271 83.7747 180.631 71.9375C182.083 70.6511 183.261 70.118 185.095 69.5647Z"/><path fill="#C8A57B" d="M154.187 111.697C158.035 114.059 165.297 120.72 168.965 123.933L190.162 142.352C204.046 154.353 221.446 167.918 234.369 179.895C252.432 194.934 269.864 210.369 287.739 225.543C330.17 261.715 373.155 297.232 416.679 332.081C426.708 340.009 436.622 348.081 446.417 356.296C453.609 362.258 460.898 368.428 468.627 373.679C472.575 376.362 476.932 377.532 480.706 374.178C482.198 371.384 481.074 316.406 481.056 308.289L481.061 201.221C480.895 173.156 480.147 144.84 480.49 116.82C494.75 116.01 516.516 114.727 530.491 115.046C530.955 168.872 531.926 222.693 533.402 276.5C533.773 296.701 534.323 316.898 535.052 337.089C535.193 341.688 535.217 375.327 538.479 378.125C543.996 382.856 560.931 366.128 565.424 363.007C603.424 331.837 642.898 302.764 680.878 271.605L705.843 251.14C707.912 249.413 718.69 240.183 720.489 239.256C723.103 236.621 729.457 231.578 732.593 229.015C744.293 219.455 756.174 210.322 767.931 200.776L869.525 118.042C876.918 124.43 884.982 131.438 891.728 138.467C887.268 141.675 880.368 145.379 875.488 148.19C865.802 153.679 856.208 159.328 846.711 165.137C831.902 174.321 813.174 188.876 799.004 199.553L779.227 215.176C776.363 217.433 769.911 221.317 769.492 224.726C770.136 226.728 769.572 225.955 771.142 227.201C776.628 228.189 786.978 219.056 791.298 215.506C817.68 193.822 845.722 174.094 875.261 156.944C883.093 152.391 891.449 148.525 899.317 144.07L903.168 148.214C896.959 152.525 875.018 167.561 873.056 173.907L873.728 174.45C882.635 173.104 901.644 158.81 909.755 153.094C912.972 155.799 916.662 158.71 919.416 161.829C915.298 166 910.739 169.447 906.257 173.196C887.878 188.571 868.657 202.825 849.973 217.81L779.208 274.085C768.786 282.512 758.275 290.828 747.676 299.033C743.441 302.309 737.831 306.903 733.473 309.846C686.269 346.778 639.635 384.431 593.587 422.794C574.479 438.925 556.674 456.57 538.053 472.277C539.881 570.482 542.248 668.676 545.152 766.855C546.583 802.283 546.936 838.205 548.028 873.669C548.717 896.031 548.192 919.63 549.284 941.852C533.181 941.991 516.227 942.555 500.256 942.52L499.325 912.991C499.222 909.684 498.72 900.138 499.044 897.175C498.492 888.621 498.578 879.74 498.317 871.114L496.495 814.662L489.732 612.685C489.027 579.409 488.101 546.137 486.956 512.872C486.785 507.443 486.742 470.17 484.483 467.882C450.984 433.966 414.254 405.08 377.594 374.783L247.857 267.02C229.26 251.555 209.242 235.866 191.011 220.25C188.049 218.271 179.132 210.37 175.97 207.73L147.097 183.834L123.139 163.977C118.976 160.537 113.274 156.205 109.697 152.379C113.481 147.624 122.281 140.068 127.169 135.677C136.211 142.827 145.767 149.523 153.995 157.621C159.888 163.421 165.544 169.479 171.268 175.445C174.322 178.628 177.399 182.345 180.919 184.986C182.238 185.976 184.168 186.899 185.847 186.414C186.615 186.192 187.234 185.777 187.656 185.11C188.496 183.783 188.458 182.376 187.99 180.927C185.558 173.389 157.182 148.767 149.857 143.258C144.139 138.958 138.21 135.238 131.957 131.788C138.379 125.494 147.342 118.019 154.187 111.697Z"/><path fill="#C8A57B" d="M869.525 118.042C876.918 124.43 884.982 131.438 891.728 138.467C887.268 141.675 880.368 145.379 875.488 148.19C865.802 153.679 856.208 159.328 846.711 165.137C831.902 174.321 813.174 188.876 799.004 199.553L779.227 215.176C776.363 217.433 769.911 221.317 769.492 224.726C770.136 226.728 769.572 225.955 771.142 227.201C776.628 228.189 786.978 219.056 791.298 215.506C817.68 193.822 845.722 174.094 875.261 156.944C883.093 152.391 891.449 148.525 899.317 144.07L903.168 148.214C896.959 152.525 875.018 167.561 873.056 173.907L873.728 174.45C882.635 173.104 901.644 158.81 909.755 153.094C912.972 155.799 916.662 158.71 919.416 161.829C915.298 166 910.739 169.447 906.257 173.196C887.878 188.571 868.657 202.825 849.973 217.81L779.208 274.085C768.786 282.512 758.275 290.828 747.676 299.033C743.441 302.309 737.831 306.903 733.473 309.846C736.253 306.047 742.535 302.115 746.475 298.906C762.015 286.246 777.921 273.914 793.587 261.402C799.884 256.373 806.76 252.029 812.74 246.615C811.97 246.034 812.281 246.236 811.478 245.755L810.925 245.431C810.51 243.007 812.8 241.167 814.963 240.663C817.982 241.6 821.994 242.377 822.56 237.798L821.587 238.577C820.806 237.612 823.024 233.86 821.425 231.228C819.527 230.726 820.465 231.824 817.558 232.461L817.527 231.701L819.211 230.828C819.299 229.213 817.424 230.808 816.023 229.135C817.625 228.728 818.283 229.117 820.037 229.483C821.316 227.539 819.048 227.33 819.887 224.53C821 224.14 820.434 224.177 821.614 224.649C822.297 226.094 822.267 226.388 823.608 227.26L824.336 226.925C824.762 225.076 824.806 225.957 824.246 224.182L823.015 223.571C822.79 222.853 822.584 222.129 822.397 221.399C819.878 222.814 820.849 220.763 817.688 223.27C813.559 223.687 815.403 219.08 811.427 216.957C809.384 217.514 810.278 217.017 808.736 218.655C808.717 215.951 808.349 211.741 809.875 209.632L810.328 209.666L811.788 211.774L812.759 211.856L813.192 211.045C812.692 209.801 812.272 209.129 812.452 207.804C814.009 205.331 814.589 205.259 813.579 202.524C809.538 200.226 806.574 206.785 804.615 208.219C795.607 208.393 778.508 234.171 768.656 227.002C766.358 222.031 773.395 218.826 776.402 216.275C783.664 210.115 791.274 204.317 798.792 198.468L801.75 196.12C799.697 194.253 799.176 195.079 797.714 192.525C797.994 189.723 798.747 187.289 800.33 184.94C802.773 184.793 802.959 185.2 804.749 186.852C806.16 185.767 806.239 185.005 807.091 183.273L807.024 182.275C803.328 179.857 803.362 181.731 800.547 180.228L800.344 179.559L801.275 178.472L802.241 180.136C803.805 180.358 804.498 180.078 806.018 179.717C806.701 178.011 806.123 178.507 807.431 177.779C809.312 178.477 808.444 177.946 809.847 179.83C810.039 178.971 810.187 178.247 810.33 177.379C811.777 177.208 811.119 177.031 812.379 177.688C813.352 179.816 813.14 180.099 815.727 180.935L816.224 180.369C814.625 178.282 812.216 175.679 811.552 173.31C805.969 170.97 804.652 171.337 800.377 175.291C794.449 180.774 786.378 186.412 780.575 191.866C776.107 196.066 758.993 208.091 756.258 212.254C756.925 214.422 759.101 215.291 759.499 217.367C757.026 216.391 757.329 214.101 754.694 212.951C747.365 217.602 724.997 238.074 720.489 239.256C723.103 236.621 729.457 231.578 732.593 229.015C744.293 219.455 756.174 210.322 767.931 200.776L869.525 118.042Z"/><path fill="#C8A57B" d="M154.187 111.697C158.035 114.059 165.297 120.72 168.965 123.933L190.162 142.352C204.046 154.353 221.446 167.918 234.369 179.895C226.8 177.775 197.738 147.67 188.313 142.332C186.977 142.989 187.47 142.718 186.497 144.102C185.039 144.359 185.572 143.985 184.685 144.938L186.636 147.238C186.061 150.318 183.785 152.66 181.558 154.727C181.804 155.973 181.585 155.367 182.947 156.435C184.639 155.563 183.189 154.855 185.226 153.361C186.575 154.058 186.863 157.775 187.526 159.484C183.407 161.765 184.164 157.602 180.627 157.076C180.022 158.539 180.2 158.033 180.102 159.692L179.227 160.629L178.326 160.658C178.677 157.051 180.769 154.997 178.934 151.874C176.342 150.788 176.256 146.786 170.924 144.036L170.52 143.21C171.65 142.276 171.774 142.412 173.269 142.171C175.373 140.568 175.771 139.595 176.158 136.982C174.443 134.093 173.134 137.24 173.76 131.749L172.643 131.277C171.544 135.132 175.673 137.047 170.375 138.652L170.342 139.185L172.023 139.993L171.703 140.749C170.662 140.819 170.414 140.816 169.561 141.425C169.356 143.203 170.686 145.704 171.409 147.578L171.642 146.884L172.524 146.292C173.791 147.206 173.343 146.639 173.974 148.013L173.501 150.298L174.122 150.716L174.715 149.93C180.407 153.318 175.184 159.778 177.224 164.986C180.193 172.566 192.791 177.094 188.259 186.71C187.951 187.365 187.386 187.671 186.777 187.972C179.812 188.776 174.932 178.757 172.07 178.857C170.942 179.834 170.75 180.255 169.408 180.644C168.375 178.689 169.017 179.33 166.573 178.433C164.253 175.638 167.484 176.215 167.591 173.339C164.654 169.124 152.449 157.674 148.236 153.683L147.592 153.862L146.988 155.184C147.124 156.749 147.181 157.269 147.09 158.877C145.609 160.125 146.492 159.677 144.119 159.567L143.109 160.859L144.449 162.071L145.496 161.261C148.783 163.003 154.171 163.079 155.682 166.22C154.523 167.08 154.087 167.277 152.829 167.931C152.245 170.025 153.042 170.622 154.427 172.016C154.664 173.727 151.662 180.486 150.85 182.499L150.258 182.673L149.503 181.948L149.725 181.13C148.35 179.43 148.595 180.312 148.374 178.525L148.914 177.822C149.591 176.923 149.369 177.312 149.74 176.475L148 174.236L148.115 173.818C148.595 172.001 149.035 168.423 149.916 167.423L150.791 167.234L150.679 166.25L148.549 166.029C147.25 168.016 148.822 171.283 146.75 171.915C145.034 171.123 145.042 171.004 143.747 169.716C144.033 170.892 143.86 170.312 144.265 171.456C143.213 173.503 142.244 175.011 141.877 177.274C146.339 185.495 188.848 213.535 191.011 220.25C188.049 218.271 179.132 210.37 175.97 207.73L147.097 183.834L123.139 163.977C118.976 160.537 113.274 156.205 109.697 152.379C113.481 147.624 122.281 140.068 127.169 135.677C136.211 142.827 145.767 149.523 153.995 157.621C159.888 163.421 165.544 169.479 171.268 175.445C174.322 178.628 177.399 182.345 180.919 184.986C182.238 185.976 184.168 186.899 185.847 186.414C186.615 186.192 187.234 185.777 187.656 185.11C188.496 183.783 188.458 182.376 187.99 180.927C185.558 173.389 157.182 148.767 149.857 143.258C144.139 138.958 138.21 135.238 131.957 131.788C138.379 125.494 147.342 118.019 154.187 111.697Z"/><path fill="#C8A57B" d="M144.449 162.071C143.692 163.976 143.491 165.677 141.268 165.42C139.725 163.867 138.837 161.566 140.913 160.113L143.109 160.859L144.449 162.071Z"/><path fill="#C8A57B" d="M499.044 897.175L499.641 897.807C500.401 903.201 500.794 919.525 500.372 924.941L501.199 925.556C502.503 925.554 507.456 924.987 508.054 925.257C507.855 926.281 508.075 925.789 506.991 926.582C504.832 926.701 503 926.498 501.341 927.745C499.204 931.177 501.388 933.522 501.266 936.891C501.17 939.547 500.902 939.026 501.595 941.618C507.31 941.355 546.65 941.599 548.117 940.045C548.568 936.05 548.042 930.848 547.922 926.701L547.325 900.631C547.092 890.475 547.753 880.292 546.974 869.997C546.652 865.728 547.429 861.232 546.598 856.759C545.24 856.507 545.751 856.57 544.287 856.94C542.936 858.734 543.187 860.021 542.844 862.51L542.299 862.249C541.613 859.97 541.227 858.71 543.032 856.815C544.588 856.211 545.124 856.015 546.614 855.179C546.843 854.474 545.066 789.078 544.536 783.168C540.854 784.977 539.428 783.098 536.37 781.929C532.983 782.21 531.376 783.51 530.519 786.823C531.065 787.691 531.099 787.666 531.906 788.258L531.434 789.759C527.112 793.7 530.022 792.931 528.351 794.728L527.193 793.689C526.783 791.047 528.073 790.774 529.978 789.346C530.441 787.347 528.638 784.032 529.969 781.868C531.402 779.54 532.163 781.559 534.585 780.757C535.44 779.009 535.315 779.878 535.192 778.1C534.046 777.246 531.831 777.476 530.259 777.466L530.009 777.096C531.697 776.992 533.097 777.015 534.79 777.041C537.031 773.621 541.257 768.141 545.152 766.855C546.583 802.283 546.936 838.205 548.028 873.669C548.717 896.031 548.192 919.63 549.284 941.852C533.181 941.991 516.227 942.555 500.256 942.52L499.325 912.991C499.222 909.684 498.72 900.138 499.044 897.175Z"/><path fill="#C8A57B" d="M541.55 774.775L542.603 774.888C544.902 776.721 543.315 779.022 541.94 780.937C539.962 779.772 539.964 779.653 539.445 777.77C539.806 776.105 540.272 775.9 541.55 774.775Z"/><path fill="#C8A57B" d="M166.258 184.846L165.545 184.51C165.851 183.747 166.144 182.98 166.424 182.207C165.615 180.918 165.054 179.938 164.401 178.552L164.069 177.833L163.246 177.6C162.816 178.573 162.749 178.863 162.532 179.878L162.326 180.857L161.916 180.641C161.708 179.08 161.234 177.876 162.786 177.092C166.394 178.189 164.041 180.628 169.408 180.644C170.297 181.587 170.746 182.03 171.733 182.865L172.422 182.503L172.835 180.301L173.676 179.84C173.409 184.198 172.668 183.53 175.661 186.285L175.457 186.954C172.441 185.435 173.617 188.575 170.484 188.176C168.958 186.234 168.488 185.91 166.258 184.846Z"/><path fill="#3D2E1F" d="M691.335 295.896C692.785 295.947 692.865 296.147 694.188 296.84C694.843 297.79 695.295 298.251 695.06 299.494C693.33 308.63 607.636 372.711 593.894 384.013C586.752 389.829 579.754 395.818 572.906 401.976C568.346 406.063 561.718 412.409 556.959 415.871C556.041 415.507 554.88 414.978 554.2 414.256C553.409 413.416 553.156 412.442 553.472 411.343C556.548 400.626 640.152 338.142 654.191 326.797C662.272 320.268 670.118 313.425 678.035 306.7C682.361 303.025 686.611 299.054 691.335 295.896Z"/><path fill="#3D2E1F" d="M390.388 343.506C396.796 342.761 405.109 354.823 410.052 359.491C421.598 370.397 433.558 379.125 445.975 389.045C454.772 396.072 467.092 404.166 473.69 413.285C474.309 414.32 472.639 416.522 471.734 417.54C468.905 417.305 467.203 416.106 465.001 414.411C458.306 409.258 450.595 403.121 444.069 398.091C433.459 389.913 389.975 357.885 388.337 346.719C388.603 345.052 389.19 344.711 390.388 343.506Z"/><path fill="#3D2E1F" d="M500.603 166.386C501.842 166.538 502.027 166.752 503.157 167.334C505.33 170.248 505.099 190.491 505.232 195.351C505.471 208.076 506.109 220.791 507.146 233.476C507.378 236.439 507.864 240.498 507.692 243.466C507.613 244.83 506.011 245.771 504.865 246.529C504.117 246.247 501.674 245.328 501.526 244.859C497.413 231.786 495.768 180.209 497.131 169.355C498 167.735 499.021 167.347 500.603 166.386Z"/><path fill="#3D2E1F" d="M513.347 617.36C520.126 618.118 519.45 628.63 519.571 634.114C519.94 650.771 519.703 675.359 513.418 690.885C512.17 690.958 510.237 690.891 509.477 689.888C507.192 686.875 509.6 677.6 510.293 673.678C513.275 656.803 512.578 640.118 511.599 623.124C511.42 620.015 511.274 619.557 513.347 617.36Z"/><path fill="#3D2E1F" d="M269.461 242.623C271.624 242.232 273.142 242.221 275.156 243.108C283.251 246.67 315.858 274.05 318.107 281.744C318.542 283.228 318.152 284.049 317.569 285.379C315.823 285.491 312.295 285.341 310.905 284.079C299.661 273.872 288.708 263.331 277.27 253.318C274.811 251.165 272.326 248.77 270.298 246.267C269.191 244.902 269.161 244.159 269.461 242.623Z"/><path fill="#3D2E1F" d="M512.948 833.335C514.848 833.378 515.118 833.3 516.856 834.2C521.418 839.33 527.726 885.907 527.568 895.549C527.538 897.417 526.937 897.65 525.791 898.72C523.924 898.476 523.924 898.449 522.172 897.71C519.026 893.956 514.189 844.549 511.094 837.045C510.608 835.867 512.183 834.302 512.948 833.335Z"/><path fill="#C8A57B" d="M520.439 807.061C522.144 806.196 523.094 806.636 525.003 807.027C526.335 808.383 526.423 808.572 527.461 810.207L528.22 810.203C529.39 808.803 529.026 809.259 529.285 807.149C530.604 807.471 530.109 807.095 530.926 808.093C530.51 810.74 526.276 812.266 525.921 815.007C526.707 815.796 527.657 815.818 528.808 816.296C530.513 814.205 528.771 812.802 530.285 811.661C535.935 815.953 532.081 817.309 530.833 821.126C534.315 822.508 536.821 822.815 538.662 826.051C537.924 827.988 535.949 826.915 536.791 828.848C537.782 831.127 538.323 830.873 538.143 833.535L537.646 833.434C536.567 831.667 535.119 828.938 535.265 826.823C536.358 826.342 536.106 826.418 537.188 826.167C536.306 824.878 534.891 823.799 533.692 822.754L531.961 822.778C532.41 824.412 532.816 824.861 533.656 826.345C533.077 829.031 532.97 829.348 531.087 831.334L530.236 831.578C528.864 828.826 530.201 827.563 528.889 825.967C528.319 825.274 528.125 824.845 527.738 823.996L526.495 824.224L525.878 825.161C526.946 826.097 526.817 825.948 528.082 826.659L528.439 827.675C527.407 829.391 528.107 828.869 526.481 829.541C525.114 828.474 525.008 828.487 524.003 826.996L524.164 826.036C525.222 827.062 525.557 827.478 526.45 828.6L527.045 828.528L527.166 827.536C526.16 826.648 525.718 826.267 524.815 825.242C524.948 823.528 524.658 824.317 525.962 822.901C528.144 822.43 528.126 823.079 529.613 824.787C529.875 819.352 528.233 821.73 532.195 816.88L530.654 813.448C530.687 814.981 530.972 816.87 530.221 818.068C528.153 818.015 523.227 816.83 521.402 815.651C521.117 812.483 522.778 815.538 522.14 812.012L521.39 811.627L520.925 811.886C519.395 812.726 519.68 812.819 518.121 812.789C517.02 811.381 517.424 812.184 517.196 810.156C518.08 809.898 518.965 809.646 519.853 809.401C520.009 808.811 520.367 807.608 520.439 807.061Z"/><path fill="#E4CDAA" d="M389.391 365.52C389.868 364.235 390.386 363.448 391.073 362.284L391.578 362.276C390.613 367.319 394.904 366.38 390.083 368.193C389.661 369.641 389.697 368.903 390.154 370.481C390.954 370.703 391.232 370.809 392.055 370.916C395.623 370.371 397.735 367.495 401.923 367.867C399.487 368.723 397.232 369.419 394.95 370.633C394.849 371.964 394.812 371.313 395.046 372.588L394.582 373.455L394.269 374.78C394.735 375.896 394.637 375.597 395.47 376.56C397.18 377.403 397.533 377.188 399.394 376.825L399.529 375.304L400.019 375.014C400.334 377.579 402.264 378.588 400.639 380.543L399.829 378.646C397.624 377.497 398.467 379.678 396.163 379.049L395.943 378.399L395.62 378.646C395.353 379.923 395.312 379.843 394.476 380.875C391.602 381.075 392.576 381.6 390.397 382.109C388.384 378.901 391.879 373.82 387.85 372.584C386.662 373.551 385.969 374.355 384.477 374.542C382.716 373.737 383.24 374.359 382.523 372.939C383.162 371.529 383.34 371.366 383.47 369.797C382.596 369.806 382.134 369.772 381.268 369.708L380.54 368.709C380.392 367.061 380.276 367.118 381.097 365.716L381.206 367.733C385.336 369.388 386.988 368.599 389.391 365.52Z"/><path fill="#C8A57B" d="M389.391 365.52C389.868 364.235 390.386 363.448 391.073 362.284L391.578 362.276C390.613 367.319 394.904 366.38 390.083 368.193C389.661 369.641 389.697 368.903 390.154 370.481C390.954 370.703 391.232 370.809 392.055 370.916C391.57 371.496 391.062 372.025 390.69 372.661C389.245 372.311 388.165 372.27 387.28 371.149C387.203 369.46 388.784 367.627 389.391 365.52Z"/><path fill="#E4CDAA" d="M392.055 370.916C395.623 370.371 397.735 367.495 401.923 367.867C399.487 368.723 397.232 369.419 394.95 370.633C394.849 371.964 394.812 371.313 395.046 372.588L394.582 373.455C393.472 374.646 393.698 375.3 392.38 377.146C391.45 376.081 391.194 374.142 390.69 372.661C391.062 372.025 391.57 371.496 392.055 370.916Z"/><path fill="#C8A57B" d="M520.439 807.061L519.288 806.135C519.227 805.376 518.715 799.081 518.622 799.005C513.588 794.907 516.953 792.074 519.775 786.955L520.271 786.863C521.067 788.345 521.887 791.191 522.85 792.016C527.549 790.34 525.824 783.246 527.379 781.626C528.13 786.72 526.373 790.001 524.187 794.691C524.309 792.933 524.664 792.705 523.853 791.674L523.382 792.299C523.758 794.348 524.112 794.434 523.528 796.118L522.754 796.135L522.019 793.674C521.139 794.477 521.53 794.06 521.278 795.681C521.935 797.122 522.291 797.149 523.64 798.001C523.784 799.362 523.859 798.728 523.262 799.906L522.684 800.193L522.464 798.011L521.805 797.99C520.187 799.583 520.438 801.403 520.426 803.631C520.421 804.774 520.426 805.918 520.439 807.061Z"/><path fill="#C8A57B" d="M489.638 126.823C497.994 127.495 488.042 140.006 488.879 143.263C490.742 143.343 492.582 143.062 493.708 144.545C493.884 146.294 494.225 147.55 493.501 149.109C491.157 149.675 490.875 145.367 488.563 144.594C486.656 145.696 487.369 144.968 486.269 146.79L486.832 148.797C485.471 148.068 485.728 147.911 484.831 146.328C486.517 144.018 490.07 143.35 487.002 139.986C487.697 139.02 488.165 138.537 488.952 137.665L488.758 137.086C487.322 138.15 488.009 138.019 486.499 138.23C485.256 135.487 487.068 132.285 485.684 130.271C485.87 129.224 485.852 128.76 485.83 127.701C486.198 130.246 486.513 133.853 487.516 136.102C489.738 135.775 489.445 136.349 490.517 135.23C490.636 133.691 490.404 133.393 489.908 131.935C488.968 131.069 488.266 130.59 487.791 129.406C488.112 127.906 488.46 127.839 489.638 126.823Z"/><path fill="#C8A57B" d="M220.51 175.823C221.568 176.205 224.093 175.731 225.771 176.426C225.317 179.264 224.813 183.301 225.198 186.119C226.975 185.848 228.729 181.205 231.332 179.941L231.539 180.483C228.302 184.301 226.84 184.098 228.756 188.493L228.332 188.992C227.718 188.027 227.691 187.993 226.867 187.199C225.767 188.125 225.732 188.395 224.361 188.514C222.96 186.673 223.712 183.723 223.971 181.235C223.397 181.999 222.171 185.321 221.947 186.287L221.792 185.883C221.784 186.941 222.659 188.091 223.115 189.193L222.548 189.396C218.893 187.771 221.569 184.573 218.283 180.893C217.756 180.302 217.833 180.468 217.914 179.705C220.993 180.084 217.882 180.35 220.449 181.939C222.697 180.069 223.485 180.033 224.323 177.541C223.016 176.941 222.902 177.15 221.347 177.239L220.611 179.478L219.808 179.826L217.652 178.661L217.561 178.119L219.926 177.415L220.51 175.823Z"/><path fill="#C8A57B" d="M536.405 854.193C538.262 855.424 539.789 856.5 541.16 858.261C541.133 859.753 541.058 859.347 539.757 860.77C540.785 862.339 542.341 863.837 540.816 865.367L539.886 864.767C538.887 862.289 539.656 860.351 539.123 857.374C537.295 856.022 538.237 856.247 536.346 856.138C535.065 857.307 535.237 856.717 534.886 858.04C536.491 857.957 536.529 857.875 538.048 858.297C538.268 860.158 537.867 860.155 536.944 862.185C537.834 863.438 537.809 863.355 538.218 864.831C537.561 866.65 537.562 866.553 536.149 867.712C534.397 868.046 535.143 868.223 533.787 867.442L534.05 865.486L533.093 864.277C533.903 863.268 533.81 863.308 533.868 861.995C533.177 860.332 533.01 860.374 531.595 859.321C530.139 858.936 529.741 859.159 528.294 859.538L527.815 859.668C528.041 858.752 530.039 857.465 530.981 856.717C531.933 857.042 532.511 858.661 533.176 859.832C533.468 857.044 534.522 856.344 536.405 854.193Z"/><path fill="#C8A57B" d="M462.793 388.038L464.597 386.684L465.656 386.889C466.558 388.65 466.563 388.625 466.937 390.557C467.877 383.737 467.257 386.548 464.555 382.081C466.084 382.247 465.597 382.203 467.07 382.968C468.283 385.189 467.455 386.114 468.425 387.981C467.5 393.067 465.904 393.217 463.23 397.042C461.694 397.276 462.142 397.194 460.517 396.9C459.674 395.346 460.474 390.386 461.313 388.867C460.262 387.836 460.475 388.304 460.012 387.039C461.052 385.935 462.345 384.85 463.905 385.364C463.195 386.628 463.164 386.646 462.793 388.038Z"/><path fill="#E4CDAA" d="M462.793 388.038L464.597 386.684L465.656 386.889C466.558 388.65 466.563 388.625 466.937 390.557C467.877 383.737 467.257 386.548 464.555 382.081C466.084 382.247 465.597 382.203 467.07 382.968C468.283 385.189 467.455 386.114 468.425 387.981C467.5 393.067 465.904 393.217 463.23 397.042C461.694 397.276 462.142 397.194 460.517 396.9C461.251 396.714 461.989 396.496 462.719 396.291C464.981 392.997 465.262 391.399 462.793 388.038Z"/><path fill="#C8A57B" d="M529.428 538.826C528.881 539.308 528.071 539.636 527.377 539.992C522.314 539.352 523.009 529.413 533.452 532.665C535.296 534.153 535.235 533.619 535.683 535.457C534.412 537.764 532.035 538.058 529.428 538.826Z"/><path fill="#C8A57B" d="M533.452 532.665C535.296 534.153 535.235 533.619 535.683 535.457C534.412 537.764 532.035 538.058 529.428 538.826C529.791 537.873 532.523 534.222 533.452 532.665Z"/><path fill="#C8A57B" d="M509.705 915.421C518.631 915.791 511.02 922.836 514.745 924.694C514.544 923.243 514.249 922.725 514.736 921.507L515.405 922.018L515.544 924.182C516.172 923.878 516.797 923.57 517.421 923.258C523.031 926.852 518.724 929.634 520.696 934.104C522.021 934.96 521.3 934.769 522.962 934.577C524.267 933.174 524.303 931.686 524.681 929.753C524.737 929.036 524.623 929.426 525.237 928.668L525.65 929.225C525.561 931.586 525.695 932.783 524.726 934.914C523.341 936.1 521.541 936.866 520.088 935.193C517.285 931.964 521.439 927.747 517.857 924.696C516.478 924.748 515.794 925.718 514.432 926.785L513.626 926.655C514.191 922.75 510.243 921.135 509.705 915.421Z"/><path fill="#C8A57B" d="M489.295 170.278C489.711 170.529 490.541 171.211 490.957 171.533C492.299 175.258 489.393 174.209 488.316 177.714L488.706 178.174C490.582 176.87 491.181 176.105 492.761 174.402L493.098 174.967C492.326 177.248 490.811 176.988 489.791 179.225C491.017 182.079 491.22 182.489 491.045 185.564C491.483 187.622 492.092 188.767 490.232 190.072C488.874 189.635 486.514 187.059 486.42 185.631L487.861 184.109C486.638 177.443 486.096 178.837 490.129 173.853C490.414 171.732 490.403 172.493 489.295 170.278Z"/><path fill="#C8A57B" d="M518.347 910.476C518.196 910.163 520.256 920.371 520.262 920.118L518.681 920.589C518.769 922.019 521.135 923.906 522.525 925.826C522.756 928.277 522.64 928.553 521.433 930.71L520.901 930.385L520.637 929.744C521.29 928.594 521.621 928.25 521.762 926.942C519.632 923.97 514.707 916.111 514.012 912.695L514.97 911.718C516.379 911.667 516.711 911.371 517.935 910.704L518.347 910.476Z"/><path fill="#C8A57B" d="M501.51 492.641C503.14 492.604 503.715 492.611 505.327 492.783C506.718 493.884 506.317 493.2 506.678 494.839C506.125 497.211 504.102 499.697 502.66 501.795C501.906 502.526 502.36 502.26 501.138 502.336L500.061 501.143C499.538 497.659 499.567 495.395 501.51 492.641Z"/><path fill="#E4CDAA" d="M414.168 386.408L415.367 386.46L416.01 387.252C416.148 389.761 415.252 391.466 414.363 393.852C413.658 393.375 412.979 392.943 412.262 392.487L411.727 392.783C410.32 393.128 410.297 393.151 408.858 393.134C407.366 392 407.764 392.712 407.448 391.031C408.549 387.439 410.825 386.961 414.168 386.408Z"/><path fill="#C8A57B" d="M232.69 196.829C235.259 197.939 237.48 200.768 238.266 203.434L237.707 204.128L236.975 203.87L236.623 201.906L236.005 201.476C234.722 202.023 235.14 201.568 234.487 202.61L235.276 204.502L234.761 205.17C234.384 203.892 234.527 204.255 233.859 203.117L233.175 203.058C232.334 204.736 232.51 203.84 232.877 205.874C230.007 207.306 231.378 207.483 228.785 206.983C227.779 205.753 228.111 206.45 227.899 204.758C229.09 205.341 229.635 205.565 230.887 206.003L231.569 205.414C231.176 201.992 227.948 200.567 232.69 196.829Z"/><path fill="#C8A57B" d="M518.441 127.043C521.891 129.708 520.712 132.566 522.453 136.233C523.537 138.518 523.362 137.897 522.595 140.175C522.178 140.314 521.422 140.468 520.972 140.574C520.888 140.406 520.805 140.238 520.721 140.07L520.33 139.246C518.266 135.153 516.981 131.434 518.441 127.043Z"/><path fill="#C8A57B" d="M741.338 282.803C741.504 282.934 745.905 287.153 745.914 287.167C746.082 289.56 745.144 290.156 744.116 292.733L743.8 293.536C741.733 294.45 742.651 294.484 740.89 294.141C740.287 291.729 741.801 291.031 741.854 287.646C740.391 285.311 740.003 285.221 741.338 282.803Z"/><path fill="#E4CDAA" d="M316.9 312.424C318.05 314.193 319.326 313.491 320.482 317.224C320.114 319.638 320.277 318.847 318.648 320.99C317.396 321.643 316.804 321.594 315.546 320.999C313.755 318.376 314.925 314.604 316.9 312.424Z"/><path fill="#C8A57B" d="M768.427 205.393C772.71 207.91 772.473 210.756 770.231 214.782C765.547 213.387 765.603 208.785 768.427 205.393Z"/><path fill="#C8A57B" d="M496.477 153.024L497.708 152.956C499.261 154.71 499.334 154.809 500.247 156.939L500.021 158.547C497.624 159.079 496.809 158.048 495.23 156.695C492.842 156.635 494.664 157.845 491.587 158.812L490.896 158.268L491.021 157.294C492.714 155.084 492.521 154.778 495.22 153.935C495.736 153.118 495.363 153.478 496.477 153.024Z"/><path fill="#E4CDAA" d="M496.477 153.024L497.708 152.956C499.261 154.71 499.334 154.809 500.247 156.939L500.021 158.547L496.77 157.156C495.78 155.453 496.207 155.492 496.477 153.024Z"/><path fill="#C8A57B" d="M589.338 348.784C590.114 349.331 593.152 352.171 593.584 352.915C593.554 355.074 593.022 355.034 591.509 357.215C591.231 357.066 590.952 356.918 590.674 356.769C586.856 352.95 586.644 352.705 589.338 348.784Z"/><path fill="#C8A57B" d="M161.761 183.52C163.284 183.767 163.395 183.772 164.815 184.343C165.117 185.429 165.41 186.517 165.695 187.607C167.44 188.062 167.851 188.061 169.269 189.234L169.357 190.33L167.956 191.796C166.73 192.815 166.39 193.299 164.805 193.45L164.189 192.869C164.179 191.255 164.667 190.442 165.225 188.855C162.833 186.489 162.612 187.002 161.761 183.52Z"/><path fill="#C8A57B" d="M353.813 323.947L354.373 324.44C354.562 326.09 354.294 325.804 353.084 327.626L353.293 328.492C354.295 327.835 354.665 327.612 355.745 327.1C357.168 327.88 356.675 327.313 357.216 328.9C356.911 330.547 356.952 331.065 355.848 332.345C354.355 332.223 354.376 332.237 353.178 331.387C351.724 330.714 351.74 330.767 350.565 329.701C350.333 327.678 350.024 327.959 350.881 326.643L351.615 326.964C351.839 328.425 351.823 329.01 352.603 330.29L353.088 329.384L352.235 328.91C351.799 327.55 352.812 326.595 353.53 324.705L353.813 323.947Z"/><path fill="#E4CDAA" d="M510.784 199.557C512.718 200.212 514.695 201.114 515.485 203.051C516.25 204.927 517.032 204.789 517.603 206.326C515.077 205.127 512.152 205.963 510.324 203.523C509.837 201.831 510.225 201.234 510.784 199.557Z"/><path fill="#C8A57B" d="M611.755 384.355L612.394 385.264C612.14 387.541 612.074 390.48 610.414 392.091L609.352 390.881C607.483 390.688 607.192 390.884 606.209 389.423C606.894 387.648 609.969 385.802 611.755 384.355Z"/><path fill="#E4CDAA" d="M473.336 437.357L474.02 437.677C475.14 437.037 474.558 437.127 475.755 437.332C477.017 439.363 475.805 440.153 476.634 443.164L477.365 443.107L478.627 441.55L478.12 443.464L477.169 443.992C474.781 443.782 472.385 443.088 472.065 440.325C472.992 439.077 473.19 438.905 473.336 437.357Z"/><path fill="#C8A57B" d="M622.895 335.244C624.702 335.911 625.67 337.467 626.915 338.987C626.248 340.942 625.46 342.966 624.74 344.912C621.761 343.841 622.795 338.456 622.895 335.244Z"/><path fill="#E4CDAA" d="M373.997 313.243C379.253 312.861 379.302 317.705 378.058 321.371C375.095 319.972 374.144 316.279 373.997 313.243Z"/><path fill="#E4CDAA" d="M323.321 323.254C327.192 323.547 329.712 325.718 331.073 329.384C326.62 331.003 324.701 326.824 323.321 323.254Z"/><path fill="#C8A57B" d="M176.735 195.244C178.659 196.681 181.688 198.492 182.115 200.676L180.838 200.768L178.682 201.981C175.849 201.016 174.881 197.658 176.735 195.244Z"/><path fill="#C8A57B" d="M472.552 382.276C472.977 382.147 472.675 382.22 473.482 382.198C473.47 383.063 473.435 383.927 473.375 384.79C473.124 388.009 472.873 389.058 470.534 391.106C466.312 386.899 471.667 385.386 472.552 382.276Z"/><path fill="#C8A57B" d="M768.545 235.71C771.324 236.164 771.669 237.206 773.885 238.526C774.185 239.875 774.448 240.53 774.901 241.82C772.629 240.137 774.055 240.064 770.487 240.126C769.044 240.151 768.352 240.098 767.425 239.097C767.488 237.29 767.663 237.244 768.545 235.71Z"/><path fill="#C8A57B" d="M596.631 351.25C597.666 351.84 598.092 352.474 598.929 353.367C599.807 356.013 599.323 356.915 598.481 359.627L597.4 359.225C595.038 356.645 594.872 354.205 596.631 351.25Z"/><path fill="#E4CDAA" d="M320.451 292.159C324.023 293.668 323.129 296.99 321.386 299.619C319.375 299.037 320.179 299.566 318.834 298.062C318.385 295.865 319.381 294.053 320.451 292.159Z"/><path fill="#C8A57B" d="M651.759 320.85L652.311 320.635L653.143 321.159C653.521 322.372 653.031 323.167 652.576 324.4C651.147 325.699 651.948 325.413 650.155 325.45L648.798 323.987C647.617 324.349 648.224 324.287 646.976 324.16L646.57 323.08C647.292 321.491 646.757 322.07 648.095 321.168C649.175 321.884 649.105 321.866 650.36 322.169L651.759 320.85Z"/><path fill="#E4CDAA" d="M434.189 408.154C437.077 408.098 436.852 408.841 439.041 410.225C439.402 410.454 441.388 409.289 442.665 409.994L442.075 410.666L439.871 410.738C439.244 412.261 439.127 412.77 438.028 414.044L437.017 413.881C435.852 412.647 434.885 409.836 434.189 408.154Z"/><path fill="#C8A57B" d="M517.881 771.485C518.205 771.494 518.867 771.698 519.215 771.788C520.271 773.837 520.392 775.288 519.738 777.563L519.434 776.292C516.91 775.496 516.457 776.426 514.988 774.657C515.795 772.701 515.987 773.02 517.881 771.485Z"/><path fill="#E4CDAA" d="M477.215 390.173C478.825 391.083 479.457 391.283 480.538 392.81C480.546 394.712 480.567 394.092 479.276 395.957C477.688 394.602 475.986 394.094 475.089 392.464C475.496 390.975 475.612 391.315 477.215 390.173Z"/><path fill="#E4CDAA" d="M291.158 278.567C292.587 279.028 293.341 279.575 294.206 280.743C294.356 282.991 294.274 282.334 292.977 284.653C291.3 284.431 291.166 283.97 290.344 282.758C290.141 280.67 290.275 280.554 291.158 278.567Z"/><path fill="#C8A57B" d="M506.105 529.64C507.9 530.084 508.058 530.193 508.9 531.66C508.285 533.952 508.458 533.254 506.529 535.152C505.835 535.596 506.046 535.403 505.018 535.458L504.523 534.231C504.667 531.883 504.817 531.623 506.105 529.64Z"/><path fill="#C8A57B" d="M497.983 518.773C498.761 520.604 499.174 522.709 498.825 524.685C497.791 525.942 498.42 525.683 497.056 525.836C496.076 524.302 495.447 523.222 495.527 521.413C496.42 519.7 496.447 519.791 497.983 518.773Z"/><path fill="#C8A57B" d="M783.727 226.754C785.248 227.373 786.175 227.564 787.173 228.856C787.232 230.747 787.019 230.416 785.899 232.36C784.703 232.534 785.112 232.503 783.882 232.277C782.917 230.481 782.879 228.599 783.727 226.754Z"/><path fill="#C8A57B" d="M644.171 325.622L644.653 325.753C645.518 328.293 643.726 330.522 641.408 331.513C640.171 330.24 640.465 330.963 640.292 329.37C641.847 327.132 642.522 328.458 644.171 325.622Z"/><path fill="#C8A57B" d="M527.812 765.62C528.913 765.697 529.419 765.842 530.501 766.094C531.678 767.481 531.305 767.109 531.503 769.307C529.554 770.39 530.125 770.482 528.523 770.048C527.682 768.649 527.855 767.297 527.812 765.62Z"/><path fill="#C8A57B" d="M333.072 325.208C335.611 325.45 334.975 325.025 336.675 326.419C337.172 328.12 337.117 328.005 336.663 329.737C335.213 329.657 335.09 329.448 333.756 328.787C332.749 326.965 333.059 327.54 333.072 325.208Z"/><path fill="#C8A57B" d="M514.698 430.413C515.287 429.924 516.101 429.808 516.803 430.114C517.505 430.419 517.976 431.094 518.019 431.859C518.063 432.623 517.672 433.347 517.009 433.73C516.096 434.257 514.932 433.998 514.33 433.133C513.727 432.269 513.887 431.087 514.698 430.413Z"/><path fill="#C8A57B" d="M515.105 117.277C516.476 117.369 516.659 117.21 517.684 118.037C517.847 119.877 517.464 119.786 516.391 121.769L515.311 121.846L514.598 121.034C514.386 119.054 514.48 119.08 515.105 117.277Z"/><path fill="#C8A57B" d="M513.548 129.098C515.764 130.132 515.809 131.61 515.38 133.72C513.626 133.766 514.235 133.984 512.828 133.21C512.447 131.368 512.877 131.194 513.548 129.098Z"/><path fill="#F5F0E8" d="M98.2006 159.375C101.702 161.318 107.861 166.821 111.175 169.618C117.089 174.664 123.072 179.629 129.123 184.51C161.606 210.664 193.835 237.132 225.806 263.91L361.344 376.388C399.189 407.527 438.262 438.49 473.467 472.65C474.334 479.354 474.389 493.955 474.491 500.925L475.297 536.676L478.173 643.557L486.907 943.707L481.125 943.882L472.228 943.98C471.267 925.028 471.109 907.575 470.676 888.694L468.448 795.679L460.397 479.204C451.726 467.134 436.659 454.198 426.092 443.532C406.289 423.544 385.383 406.51 363.518 388.918L318.494 352.33C265.385 307.996 211.896 264.12 158.032 220.706C145.389 210.422 132.651 200.253 119.822 190.201C112.14 184.287 96.3786 172.879 90.0631 166.32C92.8688 162.989 94.6537 161.654 98.2006 159.375Z"/><path fill="#C8A57B" d="M850.582 99.3106C854.899 103.722 857.431 105.488 861.66 109.287C841.847 126.255 820.606 142.409 800.417 158.974C798.034 160.929 790.372 167.55 788.369 168.54C774.006 181.092 758.173 193.146 743.235 205.059C732.461 213.652 721.096 223.8 710.091 231.924C708.92 233.017 707.9 233.942 706.671 234.969C679.912 257.154 652.83 278.948 625.435 300.343C621.065 303.717 608.5 314.697 605.079 316.665C586.225 332.62 565.575 346.113 547.498 363.699L547.467 352.889C555.767 342.433 573.748 329.258 584.442 320.844C589.519 316.849 596.662 311.158 601.822 307.675C603.029 305.916 624.007 291.124 627.143 288.747C634.882 282.812 642.513 276.737 650.032 270.525C669.636 254.207 686.234 237.447 704.844 220.258C719.751 206.489 738.341 191.766 754.506 179.296L759.427 175.338L763.027 172.408C772.437 164.865 781.742 157.191 790.939 149.389C795.59 145.429 803.755 138.071 808.387 134.829C820.079 123.505 837.789 110.065 850.582 99.3106Z"/><path fill="#C8A57B" d="M850.582 99.3106C854.899 103.722 857.431 105.488 861.66 109.287C841.847 126.255 820.606 142.409 800.417 158.974C798.034 160.929 790.372 167.55 788.369 168.54L788.458 167.436C797.382 159.367 807.535 152.293 816.843 144.662C817.439 144.173 817.319 142.482 817.328 141.793L818.127 143.065C818.427 143.064 818.726 143.064 819.026 143.063C826.612 136.271 849.085 118.092 855.898 112.929C853.471 111.32 852.275 109.825 850.369 107.778C850.662 108.092 846.909 106.758 846.325 106.489L846.318 105.915C852.851 106.618 851.325 108.01 856.354 111.655L856.866 112.021L860.167 109.44C856.827 106.626 853.539 103.751 850.304 100.817C843.16 106.971 835.62 112.728 828.542 118.981C825.795 121.407 822.814 124.032 819.778 126.041C824.941 128.746 824.372 133.463 817.81 134.698C817.271 132.726 818.122 130.955 818.011 128.338C817.285 128.42 811.854 133.203 808.387 134.829C820.079 123.505 837.789 110.065 850.582 99.3106Z"/><path fill="#E4CDAA" d="M601.822 307.675L601.932 308.514C599.876 310.556 595.011 313.579 592.291 315.835C582.26 324.157 556.162 342.722 548.988 352.609C549.598 355.697 549.164 356.658 551.2 358.073C552.447 358.004 560.473 350.849 562.229 349.423C570.905 342.387 579.66 335.45 588.493 328.611C591.381 326.371 602.859 318.168 603.793 315.48C604.149 315.801 604.774 316.331 605.079 316.665C586.225 332.62 565.575 346.113 547.498 363.699L547.467 352.889C555.767 342.433 573.748 329.258 584.442 320.844C589.519 316.849 596.662 311.158 601.822 307.675Z"/><path fill="#C8A57B" d="M763.027 172.408C764.501 173.072 764.846 173.053 765.759 174.379C765.996 177.446 765.061 178.031 763.053 180.122C761.945 180.115 762.125 180.114 761.045 179.897L759.427 175.338L763.027 172.408Z"/><path fill="#C8A57B" d="M706.671 234.969C704.892 232.458 702.819 228.379 704.829 225.506C708.238 226.437 707.476 230.203 710.091 231.924C708.92 233.017 707.9 233.942 706.671 234.969Z"/><path fill="#C8A57B" d="M754.506 179.296L759.427 175.338L761.045 179.897C758.87 181.138 756.796 179.993 754.506 179.296Z"/><path fill="#C8A57B" d="M750.74 183.895C751.903 186.421 752.065 186.872 750.928 189.468C750.267 188.609 749.883 187.945 749.317 187.032C749.425 185.089 749.364 185.721 750.74 183.895Z"/><defs><linearGradient id="gradient_0" gradientUnits="userSpaceOnUse" x1="342.3338" y1="153.6964" x2="293.28799" y2="297.64145"><stop offset="0" stop-color="#C79863"/><stop offset="1" stop-color="#EADDBA"/></linearGradient></defs><path fill="url(#gradient_0)" d="M172.668 94.8815C183.698 98.8278 240.552 155.136 252.347 165.799C259.795 172.532 276.635 187.071 284.614 194.509C299.655 208.528 314.863 223.194 330.288 237.009C355.791 260.088 382.664 281.607 410.76 301.448C420.449 308.327 430.63 315.689 440.635 322.167C442.77 323.55 443.903 323.582 446.235 322.956C447.871 321.558 447.369 322.4 447.88 320.39C447.385 317.973 445.624 316.214 443.647 314.824C412.2 292.717 380.619 270.171 352.044 244.363C366.114 253.22 379.837 262.617 393.181 272.533C411.418 286.703 431.034 299.555 448.269 315.39C456.459 322.914 460.746 330.04 468.974 337.789C468.879 344.749 469.031 351.989 469.084 358.971C452.927 347.541 437.013 332.723 421.315 320.263C370.37 279.909 320.38 238.367 271.384 195.669L204.486 138.895C191.818 128.145 175.999 113.813 163.001 103.968C165.747 101.117 169.705 97.6424 172.668 94.8815Z"/><defs><linearGradient id="gradient_1" gradientUnits="userSpaceOnUse" x1="338.82855" y1="180.62233" x2="311.78088" y2="224.07855"><stop offset="0" stop-color="#C89A69"/><stop offset="1" stop-color="#EFDFB8"/></linearGradient></defs><path fill="url(#gradient_1)" d="M185.005 83.8473C189.617 86.3946 205.193 101.69 210.48 106.015C225.947 118.666 241.383 131.309 256.538 144.328C304.687 185.917 354.176 225.927 404.927 264.295C426.137 280.445 446.491 297.949 469.383 311.081L469.375 323.72L465.724 319.829C451.901 303.805 438.685 294.568 421.88 282.013C403.892 268.498 385.453 255.596 366.594 243.327C357.869 237.641 348.266 232.683 339.709 227.034C335.945 224.549 329.532 218.06 325.787 214.717L300.268 192.008L240.114 139.206C224.922 125.83 209.685 110.656 193.246 99.0341C188.421 95.6231 182.641 93.4978 177.531 90.6447C180.186 88.0333 182.135 86.1999 185.005 83.8473Z"/><path fill="#C8A57B" d="M575.292 308.627C576.406 307.249 583.523 301.773 585.309 300.379L612.791 279.314C669.858 235.228 725.819 189.73 780.622 142.861C795.146 130.557 809.508 118.063 823.704 105.383C829.278 100.441 841.585 88.9132 847.198 85.0777C848.635 85.3217 848.477 85.5964 849.747 86.8331C849.763 88.4299 850.014 89.6384 849.079 90.8379C843.231 94.9509 836.249 101.187 830.669 105.951L800.045 132.074C780.443 148.469 759.852 164.02 740.498 180.791C731.114 188.923 720.449 196.236 711.295 204.58C675.774 236.96 641.655 270.324 602.2 298.085C594.303 303.641 586.186 310.63 578.13 315.846C577.791 316.243 571.614 321.202 570.883 321.774C565.076 326.313 560.216 330.39 554.893 335.491C558.726 328.254 568.677 313.316 575.292 308.627Z"/><path fill="#E4CDAA" d="M575.292 308.627C574.142 312.591 564.869 318.052 564.717 323.368L565.394 324.133C569.017 324.154 576.297 314.076 578.13 315.846C577.791 316.243 571.614 321.202 570.883 321.774C565.076 326.313 560.216 330.39 554.893 335.491C558.726 328.254 568.677 313.316 575.292 308.627Z"/><path fill="#F5F0E8" d="M454.971 118.351L467.717 117.863C468.658 129.708 468.375 146.305 468.544 158.498C469.109 188.901 469.061 219.313 468.399 249.714L468.648 296.604C465.843 294.719 463.059 292.804 460.297 290.858L460.074 285.465L454.971 118.351Z"/><path fill="#F5F0E8" d="M460.074 285.465C460.631 285.755 461.061 285.736 461.736 285.839C464.11 284.36 464.737 284.327 467.465 283.576C469.243 280.737 466.915 255.873 468.399 249.714L468.648 296.604C465.843 294.719 463.059 292.804 460.297 290.858L460.074 285.465Z"/><path fill="#C8A57B" d="M567.488 483.927C567.661 531.152 569.055 577.211 570.128 624.373L574.245 838.338C574.579 863.932 575.555 889.578 575.42 915.158C571.467 919.3 566.977 924.179 562.725 927.934C562.576 921.351 562.845 910.371 562.269 904.408C562.624 903.48 562.345 903.93 563.215 903.128C564.139 906.3 565.217 909.048 568.853 909.15C574.814 905.937 571.841 890.379 571.666 883.831L570.735 839L565.021 587.309C564.731 565.474 564.598 543.636 564.625 521.798C564.575 511.372 564.366 500.287 564.746 489.83C564.787 488.722 566.856 485.081 567.488 483.927Z"/><path fill="#C8A57B" d="M545.033 113.749C548.71 109.713 552.35 105.643 555.951 101.538C557.196 149.256 557.902 196.985 558.067 244.719C558.14 266.663 559.014 288.915 557.461 310.829C557.253 313.77 555.77 316.416 554.523 319.067C555.155 309.61 554.851 298.724 554.875 289.133L555.206 243.258C555.458 213.354 555.438 183.449 555.146 153.545C554.998 141.968 554.746 130.381 554.781 118.808C554.79 115.971 552.619 112.896 549.622 112.79C548.284 112.742 548.079 113.171 547.125 113.943C545.91 117.291 546.535 145.866 546.536 150.949L546.498 215.361L545.846 214.956C545.671 209.828 545.825 201.576 545.063 196.864C544.853 169.893 543.813 140.465 545.033 113.749Z"/><defs><linearGradient id="gradient_2" gradientUnits="userSpaceOnUse" x1="564.32178" y1="648.77209" x2="547.49396" y2="648.42493"><stop offset="0" stop-color="#CDAF89"/><stop offset="1" stop-color="#F6D3A4"/></linearGradient></defs><path fill="url(#gradient_2)" d="M550.43 478.263C556.906 471.675 561.773 466.878 568.984 460.999C565.931 465.154 554.639 481.264 554.377 485.722C553.256 504.841 554.616 527.556 554.597 546.608C554.786 581.768 555.555 616.921 556.903 652.055C558.844 710.429 560.229 768.82 561.058 827.221C560.91 829.296 560.768 833.153 560.513 835.017C559.942 827.674 560.11 820.596 559.944 813.252L558.885 774.751L555.983 665.998C554.668 603.683 551.257 540.489 550.43 478.263Z"/><path fill="#C8A57B" d="M522.313 95.7186C528.571 95.3414 536.014 95.5102 542.377 95.5236C539.381 98.3699 537.418 100.247 534.799 103.401C529.025 102.928 518.629 103.585 512.608 103.921C506.503 103.995 496.216 104.238 490.381 105.059C505.827 94.674 503.709 96.5025 522.313 95.7186Z"/><path fill="#856552" d="M561.058 827.221C561.834 831.135 562.455 861.94 561.576 864.98L561.197 864.743C561.309 859.226 559.908 837.986 560.513 835.017C560.768 833.153 560.91 829.296 561.058 827.221Z"/><path fill="#967656" d="M545.063 196.864C545.825 201.576 545.671 209.828 545.846 214.956L546.498 215.361C547.346 218.93 546.526 231.048 546.312 235.228C544.791 224.269 544.701 207.967 545.063 196.864Z"/><path fill="#C8A57B" d="M849.747 86.8331C855.512 92.9278 864.235 99.3332 869.294 105.398C861.299 101.362 856.183 91.1298 849.079 90.8379C850.014 89.6384 849.763 88.4299 849.747 86.8331Z"/><path fill="#856552" d="M562.269 904.408C561.748 902.119 561.728 889.353 562.615 887.866C562.816 891.019 563.639 900.516 563.215 903.128C562.345 903.93 562.624 903.48 562.269 904.408Z"/></svg>